<svg width="128" height="189" viewBox="0 0 128 189" fill="none" xmlns="http://www.w3.org/2000/svg">
<path d="M75 16.5L74.5 13.5L73.5 12.5V10L74.5 7L79 2.5L83 1H87L92 3.5L94.5 9L95.5 13.5L95 15.5H97L99.5 19.5L102 18.5L105.5 20L113.5 28.5L114 32L118.5 43V44.5L124 51V55L125.5 57V63.5L127 67V68.5L126.5 73L127.5 77.5L126 86.5L125.5 88.5L119.5 93.5L113 96L113.5 100V103L112 105.5H110.5L109 109.5L110 112L107.5 115L109 118L108.5 123L107 131.5H108.5V133.5M108.5 134L107.5 136.5L110.5 149L111 155.5L110 161.5L109 163L111 169.5L112.5 177L111 179.5L112.5 183H93L96 180V176.5L95 175L97.5 169.5V167L98 164V160V156L96.5 149.5L92.5 141.5L90 132.5L84.5 98L82 97.5L80 95L80.5 91.5L79.5 86L78.5 82L79.5 78.5L80.5 68.5L71.5 73V75.5L67.5 74H60L54 71L51.5 72L50 91.5L52 92L52.5 95L52 97L54 99M54 99H59.5M54 99V103L61 125H63L64.5 129L63 130L70.5 155H73L74 159L72 160L79.5 183L77.5 183.5L70 161L68.5 161.5L67.5 159L68.5 157L60.5 130.5L58 127H51.5L50.5 131.5V155.5H52L51.5 161L50 161.5V185H48.5V161L47 160L46.5 157.5L47 156L47.5 155V133.5L45 132.5V127L34.5 125.5L32 129L19.5 154.5L20.5 155.5L18.5 160L17 159L4 185L2 187.5L1 187L15.5 159L14.5 157.5V156L17 153.5L29 129L28 127L30.5 124.5L32 123L42 101.5L43.5 97.5L45.5 96.5L47 95L48 84L38.5 107.5L35 106L43.5 80V76.5L45 74L46.5 75.5L48 74L49 73L47 68.5L45.5 73L45 66.5L42.5 67V64.5L43.5 62.5H40.5L38.5 58L40 55L44 54.5L45.5 54L45 52.5H48H52.5L54 54L55.5 55.5H58L60.5 58L62 60.5H59.5L57.5 61L55.5 59.5V61.5L57.5 62.5H63L67.5 61.5L69.5 59.5V55.5M73 54.5L69.5 55.5M69.5 55.5L73.5 54L79 48.5L81.5 41.5L84.5 37L82.5 32.5L79 30.5L80.5 27L78.5 23H77V20L75 17.5M58 124.5L51 102L50.5 123M45.5 124L47 102L46 100.5L34.5 124L43.5 125.5L45.5 124Z" stroke="#DFDFDF"/>
</svg>
